<?xml version="1.0" encoding="iso-8859-1"?>
<!-- Uploaded to: SVG Repo, www.svgrepo.com, Generator: SVG Repo Mixer Tools -->
<svg height="800px" width="800px" version="1.1" id="Layer_1" xmlns="http://www.w3.org/2000/svg" xmlns:xlink="http://www.w3.org/1999/xlink" 
	 viewBox="0 0 512.004 512.004" xml:space="preserve">
<path style="fill:#BDC4D0;" d="M160.402,267.351l37.786-88.149h32.23l25.583,51.2l68.335-45.559l69.402,138.812l-18.893,16.145
	l-60.203-43.008c-2.185-1.562-4.753-2.381-7.432-2.381c-3.422,0-6.639,1.331-9.054,3.738l-47.863,47.855L160.402,267.351z"/>
<polygon style="fill:#E9EBEF;" points="72.065,328.074 124.648,236.06 205.953,307.202 153.601,307.202 102.401,358.402 "/>
<polygon style="fill:#919CB0;" points="3.543,448.002 72.074,328.074 102.401,358.402 153.601,307.202 205.953,307.202 
	250.292,346.003 148.293,448.002 "/>
<g>
	<polygon style="fill:#E9EBEF;" points="307.201,358.402 214.785,381.519 305.819,290.485 404.481,360.962 358.401,383.993 	"/>
	<polygon style="fill:#E9EBEF;" points="230.401,179.202 198.196,179.202 256.001,59.735 324.336,184.851 256.018,230.411 	"/>
</g>
<polygon style="fill:#788F5D;" points="148.302,448.002 214.811,381.493 307.193,358.393 358.401,384.002 404.481,360.962 
	503.997,442.14 "/>
<path style="fill:#573A32;" d="M426.813,361.175L278.896,65.35c-4.343-8.687-13.218-14.148-22.895-14.148
	c-0.247,0-0.503,0-0.759,0.009c-9.958,0.29-18.85,6.34-22.775,15.505L155.581,246.12l-10.726-9.387
	c-4.702-4.113-10.701-6.332-16.853-6.332c-1.408,0-2.825,0.119-4.241,0.35c-7.578,1.271-14.174,5.879-17.988,12.544l-102.4,179.2
	c-4.523,7.927-4.497,17.655,0.085,25.549c4.582,7.902,13.022,12.757,22.144,12.757h460.8c11.127,0,20.983-7.194,24.38-17.783
	c3.396-10.598-0.444-22.178-9.498-28.646L426.813,361.175z M256.001,76.802l51.831,103.663l-46.857,31.249l-19.123-38.238
	c-2.176-4.335-6.605-7.074-11.452-7.074h-12.8L256.001,76.802z M206.627,192.002h15.872l22.05,44.126
	c1.647,3.285,4.625,5.7,8.175,6.647c1.075,0.29,2.176,0.427,3.277,0.427c2.5,0,4.975-0.734,7.1-2.15l56.269-37.513l62.916,125.833
	l-60.203-42.999c-4.48-3.2-9.694-4.77-14.874-4.77c-6.596,0-13.15,2.543-18.108,7.501l-39.381,39.381l-73.873-64.64L206.627,192.002
	z M379.743,359.016l-21.342,10.675l-45.474-22.741c-2.748-1.365-5.854-1.698-8.823-0.964l-47.582,11.895l50.679-50.68
	L379.743,359.016z M128.001,256.002l43.887,38.4h-18.287c-3.396,0-6.647,1.348-9.054,3.746l-42.146,42.155L88.04,325.941
	L128.001,256.002z M25.601,435.202l49.271-86.229l18.475,18.475c2.5,2.5,5.777,3.755,9.054,3.755c3.277,0,6.554-1.246,9.054-3.746
	l47.454-47.445h42.24l30.421,26.624l-88.576,88.568H25.601z M179.201,435.202l42.146-42.146l84.352-21.086l46.976,23.484
	c1.801,0.896,3.772,1.348,5.726,1.348s3.925-0.452,5.726-1.348l39.194-19.593l83.081,59.341H179.201z"/>
</svg>